<?xml version="1.0" encoding="UTF-8"?>
<svg id="Layer_2" data-name="Layer 2" xmlns="http://www.w3.org/2000/svg" viewBox="0 0 74.21 74.21">
  <defs>
    <style>
      .cls-1 {
        fill: #00a780;
      }

      .cls-2 {
        fill: #92278f;
      }

      .cls-3 {
        fill: #522e91;
      }

      .cls-4 {
        fill: #004062;
      }
    </style>
  </defs>
  <g id="Layer_1-2" data-name="Layer 1">
    <path class="cls-3" d="M37.1,74.21c20.46,0,37.1-16.65,37.1-37.1h-37.1v14.93h16.15c-4.02,4.35-9.77,7.07-16.15,7.07v15.1Z"/>
    <path class="cls-4" d="M37.1,15.1c10.77,0,19.75,7.78,21.63,18.01h15.25C71.99,14.52,56.21,0,37.1,0v15.1Z"/>
    <path class="cls-2" d="M37.1,0C16.65,0,0,16.65,0,37.1h15.1c0-12.14,9.87-22.01,22.01-22.01V0Z"/>
    <path class="cls-1" d="M0,37.1C0,57.56,16.65,74.21,37.1,74.21v-15.1c-12.14,0-22.01-9.87-22.01-22.01H0Z"/>
  </g>
</svg>