<?xml version="1.0" encoding="UTF-8"?>
<svg id="Layer_2" data-name="Layer 2" xmlns="http://www.w3.org/2000/svg" xmlns:xlink="http://www.w3.org/1999/xlink" viewBox="0 0 480.03 120.16">
  <defs>
    <style>
      .cls-1 {
        fill: url(#radial-gradient-2);
      }

      .cls-2 {
        fill: url(#radial-gradient);
      }

      .cls-3, .cls-4, .cls-5 {
        fill: #fff;
      }

      .cls-3, .cls-4, .cls-6, .cls-7 {
        stroke: #000;
        stroke-miterlimit: 10;
      }

      .cls-3, .cls-6 {
        stroke-width: 4.25px;
      }

      .cls-4, .cls-7 {
        stroke-width: 3.38px;
      }

      .cls-8 {
        fill: #016de6;
      }

      .cls-9 {
        fill: #e3000b;
      }

      .cls-6, .cls-7 {
        fill: none;
      }

      .cls-10 {
        fill: #999;
      }

      .cls-11 {
        fill: #fde504;
      }
    </style>
    <radialGradient id="radial-gradient" cx="80.32" cy="68.25" fx="80.32" fy="68.25" r="10.42" gradientUnits="userSpaceOnUse">
      <stop offset="0" stop-color="#fff"/>
      <stop offset=".13" stop-color="#c6e5fc"/>
      <stop offset=".37" stop-color="#65baf7"/>
      <stop offset=".48" stop-color="#3fa9f5"/>
      <stop offset="1" stop-color="#016de6"/>
    </radialGradient>
    <radialGradient id="radial-gradient-2" cx="55.52" fx="55.52" r="10.42" xlink:href="#radial-gradient"/>
  </defs>
  <g id="structure_graphics" data-name="structure graphics">
    <g>
      <path class="cls-9" d="M451.91,115.83c0,1.22-.46,2.25-1.37,3.08-.91.83-1.98,1.25-3.19,1.25-.81,0-1.6-.28-2.36-.83s-1.34-1.33-1.75-2.33l-11.55-28.98h-58.97l-11.7,28.98c-.91,2.11-2.33,3.16-4.26,3.16-1.22,0-2.26-.42-3.12-1.25-.86-.83-1.29-1.92-1.29-3.25,0-.78.1-1.39.3-1.83L397.04,4.58c.91-2.44,2.58-3.66,5.02-3.66,1.11,0,2.15.33,3.12,1,.96.67,1.65,1.56,2.05,2.66l44.23,109.25c.3.67.46,1.33.46,2ZM428.05,79.03l-25.84-64.45-25.99,64.45h51.83Z"/>
      <path class="cls-9" d="M471.89,118.66c-.86-1-1.29-2.27-1.29-3.83V6.42c0-1.55.43-2.83,1.29-3.83.86-1,2-1.5,3.42-1.5s2.56.5,3.42,1.5c.86,1,1.29,2.28,1.29,3.83v108.42c0,1.56-.43,2.83-1.29,3.83-.86,1-2,1.5-3.42,1.5s-2.56-.5-3.42-1.5Z"/>
    </g>
    <g>
      <path class="cls-11" d="M160.98,67.24c-.3,0-.59,0-.88,0-.17,0-.35,0-.52,0-5.46,0-9.83-1.2-13.35-3.67-3.42-2.4-7.33-7.16-6.53-16.24.36-4.38,1.69-8.22,3.96-11.4.83-1.16,1.8-2.21,2.89-3.13-.03-.16-.07-.32-.1-.49-.69-3.74-.09-8.13,1.83-13.45l.03-.09c1.17-3.05,2.63-5.61,4.36-7.63,1.28-1.5,2.72-2.92,4.27-4.22.2-.19.41-.37.62-.54,2.95-2.51,6.25-4.25,9.77-5.15,2.77-.7,5.58-1.08,8.36-1.13.5-.02.99-.03,1.47-.03,4.84,0,9.08,1.07,12.6,3.18,3.15,1.89,8.36,6.52,7.83,16.27v.17c-.13,1.56-.38,3.09-.76,4.58-.68,2.78-2.04,5.27-4.04,7.39l-.26.28c-.05.06-.11.11-.16.16l-.28.24c-.45.39-.92.76-1.4,1.1.4,1.58.59,3.25.58,4.98v.21s0,.08,0,.12v.21c-.33,5.04-1.79,9.76-4.37,14.03-2.53,4.19-5.86,7.64-9.9,10.25l-.17.11c-3.01,1.85-6.25,3-9.66,3.44-2.13.28-4.21.42-6.17.42Z"/>
      <path class="cls-11" d="M195.65,67.34c-3.36,0-6.56-.66-9.51-1.95-3.34-1.47-6.09-3.69-8.17-6.62-2.26-3.16-3.4-6.93-3.4-11.21,0-3.35.51-7.06,1.5-11.03.89-3.56,2.03-7.16,3.37-10.7,1.34-3.52,2.78-6.78,4.29-9.69,2.11-4.2,4.43-7.43,7.09-9.83,2.99-2.7,6.43-4.49,10.22-5.33,2.8-.62,5.99-.94,9.49-.94,2.16,0,4.32.3,6.41.91,2.71.78,5.08,2.09,7.03,3.91,2.83,2.62,4.39,6.21,4.39,10.11s-1.19,7.39-3.43,10.14c-1.15,1.4-2.48,2.6-3.99,3.56.37,2.13.21,4.38-.45,6.71l-.07.25c-.75,2.35-1.81,4.4-3.17,6.13,1.01,1.97,1.54,4.2,1.54,6.57,0,3.85-1.05,7.27-3.13,10.17-1.78,2.48-4.08,4.45-6.84,5.86-2.16,1.1-4.47,1.89-6.88,2.37-2.14.42-4.26.64-6.28.64Z"/>
      <path class="cls-11" d="M216.15,67.46c-.86,0-1.72-.06-2.56-.18l-.3-.04c-.06,0-.12-.02-.18-.03l-.3-.07c-6.15-1.39-10.35-6.06-10.96-12.2-.32-3.2.06-6.64,1.15-10.22.8-2.62,1.62-4.97,2.46-6.98.19-.48.37-.94.5-1.31l.02-.07c.24-.65.45-1.27.65-1.89l.04-.12c1.18-3.42,2.42-6.82,3.67-10.13,1.35-3.54,2.89-7.03,4.59-10.38.88-1.81,1.94-3.55,3.15-5.16,1.58-2.1,3.55-3.88,5.85-5.3C227.68,1.11,232.33.02,238.16.02c.5,0,1.01,0,1.53.02,4.09.08,7.52.83,10.47,2.29,3.4,1.69,6,4.1,7.73,7.17l.04.07c1.79,3.3,2.62,7.02,2.47,11.1-.13,3.45-.87,6.85-2.2,10.12-1.14,2.81-2.66,5.31-4.5,7.46.1.74.16,1.49.17,2.25v.11c0,3.16-.48,6.14-1.43,8.88-.69,1.99-1.52,4.01-2.46,6.01-.16.37-.36.79-.56,1.2-1.04,2.34-2.47,4.43-4.26,6.22-2.64,2.64-6.05,4.19-9.88,4.5l-.39.02c-.25,0-.44.01-.63.01-3.27,0-6.38-.98-9.03-2.85-2.28,1.61-4.97,2.58-7.88,2.81l-.32.02c-.32.01-.59.02-.87.02Z"/>
      <path class="cls-11" d="M259.92,67.33c-4.3-.13-8.08-1.85-10.67-4.83-1.91-2.2-3.18-4.85-3.79-7.86-.39-1.95-.59-3.93-.59-5.9v-.09c.02-1.2,0-2.38-.09-3.54-.08-1.14-.14-2.3-.16-3.41-.05-2.76-.04-5.53.04-8.25.1-3.71.25-7.47.44-11.16.09-1.53.17-3.01.24-4.49v-.73c.04-1.74.23-3.43.57-5.06.6-2.91,2.01-5.52,4.18-7.75l.24-.25s.1-.1.15-.14l.26-.22c2.78-2.38,6.06-3.63,9.47-3.63.62,0,1.24.04,1.86.13,3.3.45,6.21,1.83,8.64,4.1.79.74,1.49,1.53,2.1,2.38,2.36-2.52,5.14-4.39,8.3-5.58l.24-.09s.1-.04.15-.05l.24-.07c1.49-.45,3-.68,4.49-.68,2.78,0,5.36.76,7.68,2.27,4.62,3,6.71,8.29,5.44,13.79l-.07.3c-.01.07-.03.13-.05.2l-.1.32c-1.06,3.29-2.79,6.99-5.14,10.99-2.06,3.5-4.13,6.86-6.16,10-1.64,2.52-2.86,4.48-3.62,5.83l-.2.35c-.04.07-.09.15-.14.22l-.24.33c-.61.86-1.46,2.18-2.5,3.91-1.28,2.12-2.7,4.34-4.22,6.6-1.77,2.63-3.62,4.93-5.51,6.84-3.28,3.34-6.92,5.11-10.82,5.25,0,0-.31.01-.34.01-.02,0-.33,0-.33,0Z"/>
      <path class="cls-11" d="M285.01,67.31c-.21,0-.43,0-.64-.01h-.22s-.09-.01-.13-.02l-.22-.02c-6.45-.61-9.75-3.76-11.38-6.3-1.84-2.87-2.64-6.28-2.3-9.89.17-1.86.5-3.75.97-5.63.05-.21.1-.45.16-.68.78-3.26,1.92-6.85,3.4-10.66,1.33-3.45,2.61-6.63,3.8-9.42,2.05-5.15,4.53-10.22,7.35-15.02l.03-.06c1.79-2.97,4.02-5.28,6.61-6.89,2.85-1.78,6.21-2.68,9.97-2.68,3.44,0,6.22.83,8.49,2.55,2.47,1.87,4.12,4.56,4.67,7.59.24,1.35.32,2.79.23,4.29-.08,2.02-.42,4.08-1,6.1-.43,1.51-.92,3.01-1.45,4.45l-.47,1.35c-1.74,4.96-3.65,9.95-5.69,14.81l-.47,1.13c-1.52,3.91-3.28,7.85-5.21,11.67-.15.33-.32.66-.49,1.01-1.06,2.35-2.4,4.55-3.97,6.54-2.94,3.73-7.23,5.78-12.07,5.78Z"/>
      <path class="cls-11" d="M314.19,67.34c-6.19,0-11.36-1.87-15.36-5.55-4.17-3.84-6.37-9.3-6.37-15.78,0-3.55.64-7.6,1.92-12.02,1.12-3.91,2.34-7.39,3.62-10.35,1.63-4,3.53-7.65,5.63-10.79,2.58-3.87,5.82-6.97,9.64-9.21,4.06-2.39,9.02-3.6,14.75-3.6,3.38,0,6.54.46,9.39,1.36,3.93,1.24,7.06,3.43,9.32,6.5,2.5,3.4,3.51,7.54,3,12.29-.87,7.48-4.86,13.06-10.9,15.53.21.37.41.75.6,1.14l.1.2s.05.1.07.15l.1.24c1.26,3.15,1.6,6.44,1.02,9.77-.46,2.63-1.38,5.14-2.72,7.46-1.74,3.08-4.03,5.65-6.79,7.61-2.56,1.82-5.42,3.16-8.51,3.96-2.74.71-5.59,1.08-8.49,1.08Z"/>
      <path class="cls-11" d="M346.54,67.34c-3.36,0-6.56-.66-9.51-1.95-3.34-1.47-6.09-3.69-8.17-6.62-2.26-3.16-3.4-6.93-3.4-11.21,0-3.35.51-7.06,1.5-11.03.89-3.56,2.03-7.16,3.37-10.7,1.34-3.52,2.78-6.78,4.29-9.69,2.11-4.2,4.43-7.43,7.09-9.83,2.99-2.7,6.43-4.49,10.22-5.33,2.8-.62,5.99-.94,9.49-.94,2.16,0,4.32.3,6.41.91,2.71.78,5.08,2.09,7.03,3.91,2.83,2.62,4.39,6.21,4.39,10.11s-1.19,7.39-3.43,10.14c-1.15,1.4-2.48,2.6-3.99,3.56.37,2.13.21,4.38-.45,6.71l-.07.25c-.75,2.35-1.81,4.4-3.17,6.13,1.01,1.97,1.54,4.2,1.54,6.57,0,3.85-1.05,7.27-3.13,10.17-1.78,2.48-4.08,4.45-6.84,5.86-2.16,1.1-4.47,1.89-6.88,2.37-2.14.42-4.26.64-6.28.64Z"/>
      <path class="cls-11" d="M161.98,119.68c-2.37,0-4.73-.22-7.02-.64-4.47-.83-8.21-3.22-10.83-6.9-2.01-2.86-3.01-6.29-3.05-10.48v-.29c.09-3.97.81-8.45,2.15-13.36,1.21-4.47,2.48-8.38,3.76-11.61,1.8-4.73,3.51-8.61,5.08-11.51,2.22-4.11,5.07-7.22,8.45-9.24,3.66-2.21,8.28-3.29,14.11-3.29.5,0,1.01,0,1.53.02,4.09.08,7.52.83,10.47,2.29,3.44,1.71,6.06,4.16,7.76,7.29,1.77,3.16,2.62,6.77,2.54,10.69-.08,3.35-.76,6.64-2.04,9.78-1.06,2.62-2.49,4.96-4.26,6.97.36,2.79.14,5.72-.64,8.75-.82,3.19-2.12,6.22-3.85,9.02-1.9,3.06-4.13,5.52-6.63,7.31l-.26.18c-2.81,1.86-5.64,3.19-8.44,3.97-2.51.7-5.04,1.05-7.51,1.05-.18,0-.36,0-.53,0-.26,0-.52,0-.77,0Z"/>
      <path class="cls-11" d="M186.97,119.78c-.86,0-1.71-.06-2.55-.18l-.31-.04c-.06,0-.13-.02-.19-.03l-.3-.07c-6.14-1.39-10.34-6.06-10.96-12.19-.32-3.2.06-6.64,1.15-10.22.8-2.61,1.62-4.96,2.46-6.98.19-.48.37-.94.5-1.31.25-.7.47-1.31.67-1.95l.06-.17c1.17-3.4,2.4-6.78,3.66-10.08,1.35-3.55,2.89-7.04,4.59-10.39.87-1.8,1.94-3.55,3.15-5.16,1.58-2.1,3.55-3.88,5.84-5.3,3.75-2.26,8.4-3.36,14.23-3.36.5,0,1.01,0,1.53.02,4.09.08,7.52.83,10.47,2.29,3.4,1.69,6,4.1,7.73,7.17l.04.08c1.79,3.29,2.62,7.02,2.47,11.1-.13,3.44-.87,6.85-2.2,10.12-1.15,2.81-2.66,5.31-4.51,7.46.1.74.16,1.49.17,2.25v.1c0,3.16-.48,6.14-1.43,8.87-.69,1.99-1.52,4.01-2.46,6.01-.16.37-.36.79-.56,1.2-1.04,2.34-2.47,4.43-4.26,6.22-2.64,2.64-6.06,4.19-9.89,4.5l-.39.02c-.25,0-.44.01-.63.01-3.27,0-6.38-.98-9.03-2.85-2.28,1.61-4.97,2.58-7.88,2.81l-.32.02c-.32.01-.59.02-.87.02Z"/>
      <path class="cls-11" d="M222.62,119.64c-.21,0-.43,0-.64-.01h-.22s-.09-.01-.13-.02l-.22-.02c-6.45-.61-9.74-3.76-11.37-6.29-1.84-2.86-2.64-6.28-2.3-9.88.17-1.86.5-3.76.97-5.62.05-.21.1-.45.16-.69.78-3.26,1.93-6.85,3.4-10.66,1.34-3.46,2.61-6.63,3.8-9.43,2.04-5.14,4.52-10.21,7.34-15.02l.04-.07c1.79-2.96,4.01-5.27,6.61-6.89,2.85-1.78,6.21-2.68,9.97-2.68,3.44,0,6.22.83,8.49,2.55,2.47,1.87,4.13,4.57,4.67,7.6.24,1.35.32,2.79.23,4.28-.08,2.02-.42,4.08-1,6.1-.43,1.51-.92,3.01-1.45,4.45l-.47,1.34c-1.73,4.95-3.64,9.93-5.69,14.81l-.47,1.13c-1.52,3.91-3.28,7.85-5.2,11.67-.15.33-.32.66-.49,1.01-1.06,2.35-2.39,4.55-3.97,6.54-2.94,3.73-7.23,5.78-12.07,5.78Z"/>
      <path class="cls-11" d="M251.81,119.67c-6.19,0-11.36-1.87-15.36-5.55-4.17-3.84-6.37-9.3-6.37-15.78,0-3.55.64-7.6,1.92-12.02,1.12-3.92,2.34-7.4,3.62-10.35,1.63-4,3.53-7.65,5.63-10.79,2.58-3.87,5.82-6.97,9.64-9.21,4.06-2.39,9.02-3.59,14.75-3.59,3.38,0,6.54.46,9.39,1.36,3.93,1.24,7.06,3.43,9.32,6.51,2.5,3.4,3.51,7.53,3,12.29-.87,7.48-4.86,13.06-10.91,15.54.22.37.42.75.6,1.15l.09.19s.04.1.06.15l.09.23c1.26,3.16,1.61,6.46,1.03,9.79-.46,2.64-1.38,5.15-2.72,7.46-1.74,3.08-4.03,5.65-6.79,7.61-2.56,1.82-5.42,3.16-8.51,3.96-2.74.71-5.59,1.08-8.49,1.08Z"/>
      <path class="cls-11" d="M275.25,119.76c-3.18,0-6.19-1.15-8.71-3.32l-.23-.2c-.05-.04-.1-.09-.15-.14l-.23-.23c-2.19-2.24-4.76-6.25-4.53-12.69.11-3.23.75-6.73,1.9-10.42.98-3.16,2.14-6.3,3.43-9.32,1.21-2.81,2.29-5.23,3.21-7.21.25-.55.51-1.11.75-1.6l.07-.19s.13-.28.13-.28c.42-.92.97-2.09,1.65-3.5.73-1.53,1.41-2.87,2.02-3.98l.12-.21s.05-.09.08-.13l.14-.22c.12-.18.23-.37.35-.58.61-1.08,1.29-2.21,2.01-3.36,1.03-1.62,2.17-3.07,3.41-4.31,1.55-1.56,3.4-2.85,5.5-3.85,2.33-1.11,4.74-1.68,7.17-1.68.24,0,.49,0,.73.02,3.09.15,5.7,1.02,7.77,2.57.82-.38,1.66-.72,2.5-1.02,0,0,.42-.14.56-.19,1.88-.76,3.84-1.23,5.84-1.41l.23-.02s.1,0,.15,0h.13s.4-.01.53-.01c2,0,3.96.4,5.81,1.2,3.14,1.35,5.54,3.85,6.75,7.05l.09.23s.03.08.04.13l.07.22c.98,3.17.85,6.5-.39,9.63-1.21,3.01-2.95,5.8-5.18,8.29-1.64,1.82-3.35,3.55-5.08,5.13-.22.21-.44.42-.67.61-1.32,1.22-2.69,2.43-4.07,3.62.76,1.55,1.42,3.14,1.95,4.76.62,1.81,1.09,3.67,1.38,5.52.36,2.31.36,4.69-.02,7.09-.44,2.99-1.53,5.71-3.25,8.07-2.54,3.5-6.47,5.54-11.07,5.75,0,0-.33.01-.36.01-.02,0-.31,0-.31,0-2.91-.07-5.59-.9-7.96-2.49-.97-.64-1.89-1.38-2.77-2.2-1.07,1.03-2.18,1.87-3.37,2.56-1.81,1.07-3.86,1.79-6.07,2.14-.68.11-1.37.16-2.05.16Z"/>
      <path class="cls-11" d="M318.68,119.57c-.3,0-.59,0-.88,0-.17,0-.35,0-.52,0-5.46,0-9.83-1.2-13.35-3.67-3.42-2.4-7.33-7.16-6.53-16.24.36-4.38,1.69-8.22,3.96-11.4.83-1.16,1.8-2.21,2.89-3.13-.03-.16-.07-.32-.1-.49-.69-3.74-.09-8.14,1.83-13.45l.04-.09c1.16-3.04,2.63-5.6,4.36-7.63,1.28-1.49,2.71-2.91,4.27-4.22.2-.19.41-.36.61-.53,2.95-2.51,6.25-4.25,9.77-5.15,2.77-.7,5.58-1.08,8.36-1.13.5-.02.99-.03,1.47-.03,4.84,0,9.08,1.07,12.6,3.18,3.15,1.89,8.36,6.52,7.83,16.27v.14c-.13,1.58-.38,3.12-.76,4.62-.68,2.78-2.04,5.27-4.04,7.39l-.26.27c-.05.06-.11.11-.17.16l-.29.25c-.45.39-.91.75-1.39,1.1.4,1.58.59,3.25.58,4.98v.21s0,.08,0,.12v.21c-.33,5.04-1.79,9.76-4.37,14.03-2.53,4.19-5.86,7.64-9.9,10.25l-.17.11c-3.01,1.85-6.26,3-9.66,3.45-2.13.28-4.21.42-6.17.42Z"/>
      <path d="M160.98,62.01c-.29,0-.58,0-.86-.01-.18,0-.36,0-.54,0-4.35,0-7.73-.89-10.35-2.72-2.29-1.61-4.91-4.9-4.32-11.49.28-3.45,1.29-6.43,3.01-8.83,1.22-1.71,2.88-3.06,4.96-4.03-.61-1.09-1.04-2.28-1.28-3.57-.52-2.8,0-6.3,1.61-10.71l.03-.08c.94-2.47,2.06-4.44,3.42-6.03,1.12-1.31,2.39-2.56,3.76-3.7.16-.15.32-.3.49-.43,2.37-2.02,4.97-3.4,7.72-4.1,2.4-.61,4.83-.94,7.22-.97.45-.02.88-.03,1.31-.03,3.88,0,7.22.82,9.91,2.44,2.62,1.57,5.66,4.84,5.29,11.5v.09c-.1,1.22-.3,2.45-.61,3.65-.47,1.92-1.41,3.65-2.78,5.1l-.16.17-.17.15c-1.35,1.17-2.89,2.06-4.58,2.63-.02,0-.04.02-.06.02,1.35,2.07,2.05,4.55,2.04,7.34v.13s0,.13,0,.13c-.26,4.2-1.48,8.12-3.61,11.66-2.11,3.5-4.89,6.38-8.26,8.56l-.09.06c-2.35,1.44-4.9,2.35-7.58,2.7-1.9.25-3.76.37-5.5.37Z"/>
      <path d="M195.65,62.11c-2.63,0-5.12-.51-7.4-1.51-2.46-1.08-4.49-2.72-6.02-4.87-1.61-2.26-2.43-5.01-2.43-8.17,0-2.91.45-6.2,1.35-9.76.84-3.36,1.92-6.77,3.19-10.12,1.26-3.33,2.62-6.41,4.04-9.14,1.84-3.66,3.78-6.4,5.95-8.35,2.31-2.09,4.95-3.47,7.85-4.11,2.43-.54,5.24-.81,8.35-.81,1.68,0,3.35.24,4.97.7,1.91.55,3.57,1.46,4.92,2.71,1.78,1.65,2.71,3.82,2.71,6.27,0,2.7-.76,5-2.26,6.83-1.31,1.61-2.98,2.81-4.95,3.58-.58.23-1.18.42-1.78.58.08.1.16.2.24.3,1.08,1.44,2.14,3.93,1.07,7.67l-.04.13c-1.22,3.82-3.31,5.97-5.37,7.17,2.26,1.61,3.51,4.12,3.51,7.09,0,2.73-.72,5.13-2.15,7.12-1.29,1.8-2.96,3.22-4.97,4.24-1.72.88-3.58,1.51-5.52,1.9-1.81.36-3.59.54-5.27.54Z"/>
      <path d="M216.15,62.23c-.61,0-1.22-.04-1.81-.13l-.18-.03-.18-.04c-3.94-.89-6.52-3.74-6.91-7.62-.25-2.51.07-5.27.95-8.18.75-2.45,1.51-4.64,2.29-6.49.25-.63.46-1.17.6-1.58l.02-.06c.24-.66.48-1.34.7-2.03l.03-.09c1.14-3.31,2.35-6.65,3.6-9.91,1.28-3.38,2.75-6.71,4.38-9.9.75-1.55,1.64-3.01,2.65-4.35,1.18-1.57,2.67-2.92,4.41-3.99,2.89-1.74,6.64-2.58,11.49-2.58.45,0,.9,0,1.37.02,3.35.06,6.07.63,8.31,1.74,2.44,1.21,4.29,2.91,5.5,5.05l.04.07c1.31,2.41,1.92,5.22,1.8,8.35-.1,2.83-.72,5.64-1.82,8.34-1.13,2.77-2.69,5.16-4.62,7.1-.25.25-.51.49-.78.72.43,1.22.65,2.55.68,3.96v.08c0,2.53-.38,4.91-1.14,7.09-.64,1.83-1.4,3.69-2.27,5.53-.18.4-.36.8-.55,1.19-.78,1.78-1.86,3.38-3.22,4.73-1.75,1.75-4.03,2.78-6.61,2.99h-.11s-.11.01-.11.01c-.13,0-.27,0-.4,0-2.27,0-4.35-.67-6.16-2-1.2-.87-2.11-1.96-2.73-3.21-.54.79-1.15,1.52-1.83,2.2-1.74,1.74-4.03,2.78-6.61,2.99h-.17c-.2.02-.4.02-.6.02Z"/>
      <path d="M260.09,62.11c-3.62-.11-5.74-1.71-6.88-3.03-1.31-1.51-2.19-3.35-2.61-5.46-.32-1.61-.49-3.25-.49-4.87v-.08c.02-1.28-.01-2.59-.1-3.9-.08-1.07-.13-2.15-.15-3.19-.05-2.66-.04-5.34.04-7.98.1-3.67.24-7.38.44-11.03.09-1.56.18-3.1.25-4.65v-.79c.03-1.38.18-2.75.46-4.07.4-1.92,1.34-3.66,2.8-5.16l.15-.15.16-.14c2.3-1.96,4.57-2.37,6.06-2.37.39,0,.78.03,1.16.08,2.2.3,4.15,1.22,5.77,2.74,1.68,1.57,2.7,3.41,3.04,5.48l.02.11v.11c.18,1.42.31,2.91.41,4.44,1.57-2.24,3.19-4.47,4.87-6.66,2.04-2.63,4.54-4.5,7.46-5.6l.14-.05.15-.04c1.01-.31,2.02-.46,3-.46,1.75,0,3.38.48,4.83,1.42,2.77,1.8,3.96,4.88,3.19,8.24l-.04.19-.06.19c-.95,2.97-2.48,6.22-4.67,9.94-2.02,3.43-4.05,6.73-6.04,9.82-1.7,2.61-2.97,4.65-3.78,6.1l-.12.21-.14.2c-.7.98-1.61,2.41-2.73,4.25-1.23,2.05-2.61,4.2-4.09,6.39-1.59,2.36-3.24,4.41-4.9,6.1-2.32,2.36-4.77,3.6-7.28,3.69h-.16s-.16,0-.16,0Z"/>
      <path d="M285.01,62.08c-.15,0-.3,0-.45,0h-.13s-.13-.02-.13-.02c-3.5-.33-6.01-1.65-7.47-3.92-1.22-1.9-1.72-4.11-1.49-6.57.15-1.61.44-3.25.84-4.88.05-.23.1-.45.16-.66.73-3.05,1.81-6.44,3.2-10.04,1.32-3.42,2.58-6.55,3.75-9.3,1.97-4.96,4.34-9.8,7.03-14.38l.03-.06c1.34-2.21,2.98-3.93,4.87-5.1,2.01-1.25,4.44-1.89,7.21-1.89,2.26,0,4.01.49,5.34,1.5,1.43,1.09,2.36,2.59,2.67,4.34.17.95.22,1.99.16,3.08-.07,1.65-.34,3.31-.8,4.94-.4,1.39-.85,2.77-1.33,4.1l-.49,1.39c-1.71,4.89-3.58,9.77-5.58,14.55l-.47,1.15c-1.49,3.83-3.2,7.67-5.07,11.38-.16.35-.33.7-.52,1.07-.89,1.99-2.02,3.85-3.35,5.54-1.96,2.48-4.71,3.79-7.96,3.79Z"/>
      <path class="cls-5" d="M302.41,9.91c1.2,0,2.05.19,2.54.56.49.37.79.86.9,1.46.11.6.14,1.27.09,2.02-.05,1.3-.26,2.59-.63,3.89-.37,1.3-.79,2.57-1.24,3.82-.17.48-.34.96-.5,1.44-1.68,4.8-3.51,9.56-5.47,14.26-.17.41-.34.82-.5,1.22-1.47,3.77-3.11,7.46-4.93,11.06-.17.36-.35.73-.54,1.12-.74,1.68-1.67,3.23-2.79,4.65-1.12,1.42-2.65,2.09-4.59,2.02-2.02-.19-3.35-.79-4-1.8-.65-1.01-.91-2.22-.77-3.62.13-1.4.38-2.82.74-4.23.05-.22.1-.42.14-.61.7-2.91,1.7-6.07,3.03-9.49,1.32-3.42,2.56-6.49,3.71-9.2,1.9-4.78,4.14-9.38,6.74-13.8.96-1.58,2.08-2.77,3.35-3.57,1.27-.79,2.86-1.19,4.75-1.19Z"/>
      <path d="M314.19,62.11c-4.84,0-8.81-1.4-11.81-4.17-3.11-2.86-4.69-6.88-4.69-11.94,0-3.07.58-6.62,1.71-10.58,1.07-3.71,2.21-6.99,3.41-9.74,1.52-3.73,3.26-7.08,5.17-9.94,2.14-3.2,4.81-5.76,7.94-7.61,3.25-1.91,7.32-2.87,12.1-2.87,2.84,0,5.47.38,7.81,1.12,2.85.9,5.1,2.45,6.68,4.61,1.7,2.32,2.38,5.22,2.01,8.64-.82,7.12-5.04,11.54-11.58,12.19-.34.04-.69.06-1.06.06-.69,0-1.47-.07-2.37-.22-1.98-.33-3.73-1.3-5.05-2.8-.21-.24-.43-.52-.63-.84-.19.42-.39.88-.61,1.39-.89,2.09-1.74,4.29-2.52,6.55,1.34-.96,2.93-1.56,4.71-1.75h.07c.37-.04.75-.06,1.11-.06,1.34,0,2.62.24,3.79.72,1.3.53,3.1,1.7,4.31,4.23l.06.13.06.14c.9,2.25,1.14,4.58.73,6.94-.36,2.03-1.06,3.96-2.09,5.74-1.39,2.45-3.17,4.46-5.3,5.98-2.04,1.45-4.33,2.52-6.8,3.16-2.31.6-4.72.91-7.17.91Z"/>
      <path d="M346.54,62.11c-2.63,0-5.12-.51-7.4-1.51-2.46-1.08-4.49-2.72-6.02-4.87-1.61-2.26-2.43-5.01-2.43-8.17,0-2.91.45-6.2,1.35-9.76.84-3.36,1.92-6.77,3.19-10.12,1.26-3.33,2.62-6.41,4.04-9.14,1.84-3.66,3.78-6.4,5.95-8.35,2.31-2.09,4.95-3.47,7.85-4.11,2.43-.54,5.24-.81,8.35-.81,1.68,0,3.35.24,4.97.7,1.91.55,3.57,1.46,4.92,2.71,1.78,1.65,2.71,3.82,2.71,6.27,0,2.7-.76,5-2.26,6.83-1.31,1.61-2.98,2.81-4.95,3.58-.58.23-1.18.42-1.78.58.08.1.16.2.24.3,1.08,1.44,2.14,3.93,1.07,7.67l-.04.13c-1.22,3.82-3.31,5.97-5.37,7.17,2.26,1.61,3.51,4.12,3.51,7.09,0,2.73-.72,5.13-2.15,7.12-1.29,1.8-2.96,3.22-4.97,4.24-1.72.88-3.58,1.51-5.52,1.9-1.81.36-3.59.54-5.27.54Z"/>
      <path class="cls-5" d="M352.44,27.67c7.54-1.03,10.69.62,9.44,4.97-.91,2.86-2.53,4.59-4.84,5.2-2.32.61-5.05.59-8.19-.05-.82,2.31-1.53,4.63-2.13,6.99,2.38-.7,4.8-1.01,7.28-.94,1.8.05,3.22.44,4.25,1.17,1.03.73,1.55,1.83,1.55,3.3,0,1.75-.43,3.22-1.28,4.41-.85,1.19-1.95,2.13-3.3,2.81-1.35.68-2.78,1.18-4.3,1.48-1.53.3-2.98.45-4.38.45-1.99,0-3.84-.37-5.53-1.12-1.69-.74-3.06-1.85-4.11-3.31-1.04-1.46-1.57-3.29-1.57-5.48,0-2.55.4-5.42,1.21-8.63.8-3.21,1.81-6.41,3.03-9.6,1.21-3.19,2.49-6.09,3.84-8.68,1.56-3.12,3.2-5.46,4.92-7.01,1.72-1.55,3.63-2.56,5.74-3.03,2.11-.47,4.56-.7,7.35-.7,1.25,0,2.48.17,3.69.52,1.21.35,2.23.9,3.04,1.66.82.76,1.22,1.71,1.22,2.86,0,1.61-.4,2.91-1.21,3.89-.81.99-1.82,1.72-3.04,2.2-1.22.48-2.52.74-3.89.79-.91.07-1.93.12-3.06.14-1.13.02-2.11.01-2.95-.04-1.1,1.97-2.03,3.88-2.77,5.73Z"/>
      <path d="M161.98,114.45c-2.05,0-4.09-.19-6.07-.56-3.11-.58-5.71-2.24-7.53-4.79-1.37-1.96-2.05-4.4-2.09-7.51v-.16c.08-3.51.74-7.57,1.96-12.06,1.16-4.29,2.37-8.01,3.57-11.05,1.76-4.64,3.34-8.22,4.82-10.95,1.77-3.27,3.96-5.7,6.53-7.24,2.83-1.71,6.58-2.55,11.43-2.55.45,0,.9,0,1.37.02,3.35.06,6.07.63,8.31,1.74,2.46,1.22,4.31,2.94,5.49,5.11,1.32,2.36,1.97,5.09,1.9,8.07-.06,2.71-.62,5.38-1.66,7.93-1.08,2.67-2.63,4.94-4.59,6.76-.17.16-.35.32-.53.47.09.27.17.56.24.84.61,2.55.53,5.35-.24,8.31-.69,2.68-1.78,5.23-3.23,7.57-1.53,2.47-3.29,4.43-5.22,5.81l-.14.1c-2.32,1.54-4.65,2.64-6.92,3.27-2.05.57-4.11.86-6.11.86-.17,0-.34,0-.51,0h-.03c-.25,0-.51,0-.76,0Z"/>
      <path d="M186.97,114.55c-.61,0-1.22-.04-1.81-.13l-.18-.03-.18-.04c-3.94-.89-6.53-3.74-6.91-7.62-.25-2.51.07-5.26.95-8.17.75-2.45,1.51-4.63,2.29-6.49.25-.62.45-1.16.6-1.59.26-.72.5-1.4.72-2.08l.03-.09c1.15-3.33,2.36-6.66,3.6-9.91,1.29-3.38,2.76-6.71,4.38-9.9.75-1.55,1.64-3.01,2.65-4.35,1.18-1.57,2.67-2.92,4.41-3.99,2.89-1.75,6.64-2.58,11.49-2.58.45,0,.9,0,1.37.02,3.35.06,6.07.63,8.31,1.74,2.44,1.21,4.29,2.91,5.5,5.05l.04.07c1.31,2.41,1.92,5.22,1.8,8.35-.11,2.83-.72,5.64-1.82,8.34-1.13,2.78-2.69,5.16-4.62,7.1-.25.25-.51.49-.78.72.43,1.23.65,2.55.68,3.96v.08c0,2.53-.38,4.91-1.14,7.09-.63,1.82-1.4,3.68-2.27,5.53-.17.39-.36.79-.55,1.19-.78,1.78-1.86,3.38-3.22,4.73-1.75,1.75-4.03,2.78-6.61,2.99h-.11s-.11.01-.11.01c-.13,0-.27,0-.4,0-2.28,0-4.35-.67-6.16-2-1.2-.87-2.11-1.95-2.73-3.21-.54.79-1.15,1.52-1.83,2.2-1.74,1.74-4.03,2.78-6.6,2.99h-.17c-.2.02-.4.02-.6.02Z"/>
      <path class="cls-5" d="M220.11,66.67c.91,1.68,1.33,3.67,1.24,5.96-.09,2.29-.58,4.54-1.48,6.75-.9,2.21-2.1,4.06-3.6,5.56-1.5,1.5-3.2,2.25-5.1,2.25,1.25.46,2.16,1.19,2.74,2.22.58,1.02.88,2.22.9,3.58,0,2.02-.29,3.87-.88,5.57-.59,1.69-1.29,3.4-2.11,5.13-.17.38-.35.77-.54,1.15-.55,1.3-1.32,2.43-2.29,3.4-.97.97-2.2,1.52-3.69,1.64-1.37.05-2.59-.32-3.66-1.1-1.07-.78-1.65-1.85-1.75-3.22-.02-.89.05-1.64.23-2.27.18-.62.43-1.25.74-1.87.22-.46.44-1,.69-1.62.12-.29.24-.6.36-.94.53-1.2.97-2.5,1.33-3.89.36-1.39.31-2.65-.14-3.78-.34-.29-.74-.46-1.22-.5-.65-.07-1.22-.1-1.71-.07-.49.02-1.04.06-1.64.11-.22.67-.46,1.43-.72,2.27-.43,1.1-.94,2.49-1.51,4.14-.53,1.44-1.05,2.85-1.55,4.23-.5,1.38-.96,2.54-1.37,3.48-.58,1.3-1.35,2.43-2.32,3.4-.97.97-2.2,1.52-3.69,1.64-.53.02-1.05,0-1.55-.07-2.02-.46-3.12-1.64-3.31-3.55-.19-1.91.07-4.03.77-6.36.71-2.33,1.42-4.36,2.14-6.09.29-.72.52-1.32.68-1.8.26-.72.52-1.45.76-2.2,1.13-3.27,2.31-6.53,3.55-9.78,1.24-3.25,2.64-6.42,4.2-9.49.62-1.3,1.36-2.5,2.2-3.62.84-1.12,1.89-2.06,3.13-2.83,2.31-1.39,5.74-2.02,10.3-1.87,2.64.05,4.76.47,6.36,1.26s2.77,1.85,3.51,3.17ZM201.67,82.81c.26.1.53.16.79.18,2.26.26,4.14-.49,5.66-2.27.84-.98,1.41-2.13,1.71-3.42.3-1.3.38-2.57.23-3.82-.05-.7-.4-1.19-1.05-1.48h-.04c-.1-.07-.37-.14-.83-.2-.46-.06-1.12-.04-1.98.05-.74,1.54-1.6,3.38-2.58,5.53-.97,2.15-1.74,3.92-2.29,5.31.12.05.24.08.36.11Z"/>
      <path d="M222.62,114.41c-.15,0-.3,0-.45,0h-.13s-.13-.02-.13-.02c-3.5-.33-6.01-1.65-7.47-3.92-1.22-1.9-1.72-4.11-1.49-6.57.15-1.61.44-3.25.84-4.87.05-.23.1-.44.15-.65.74-3.08,1.82-6.47,3.2-10.05,1.32-3.42,2.58-6.55,3.75-9.3,1.97-4.95,4.33-9.79,7.03-14.38l.03-.06c1.34-2.21,2.98-3.93,4.87-5.1,2.01-1.25,4.44-1.89,7.21-1.89,2.26,0,4.01.49,5.34,1.5,1.44,1.09,2.36,2.59,2.67,4.35.17.95.22,1.98.16,3.07-.07,1.65-.34,3.31-.81,4.94-.4,1.39-.85,2.77-1.33,4.1l-.49,1.41c-1.7,4.85-3.57,9.74-5.57,14.52l-.48,1.16c-1.5,3.86-3.21,7.68-5.07,11.36-.16.35-.33.7-.52,1.07-.89,1.99-2.02,3.85-3.35,5.54-1.96,2.48-4.71,3.79-7.96,3.79Z"/>
      <path class="cls-5" d="M240.03,62.24c1.2,0,2.05.19,2.54.56.49.37.79.86.9,1.46.11.6.14,1.27.09,2.02-.05,1.3-.26,2.59-.63,3.89-.37,1.3-.79,2.57-1.24,3.82-.17.48-.34.96-.5,1.44-1.68,4.8-3.51,9.56-5.47,14.26-.17.41-.34.82-.51,1.22-1.47,3.77-3.11,7.46-4.93,11.06-.17.36-.35.73-.54,1.12-.74,1.68-1.68,3.23-2.79,4.65-1.12,1.42-2.65,2.09-4.59,2.02-2.02-.19-3.35-.79-4-1.8-.65-1.01-.91-2.22-.78-3.62.13-1.4.38-2.82.74-4.23.05-.22.1-.42.14-.61.7-2.91,1.7-6.07,3.03-9.49,1.32-3.42,2.56-6.49,3.71-9.2,1.9-4.78,4.14-9.38,6.74-13.8.96-1.58,2.08-2.77,3.35-3.57,1.27-.79,2.86-1.19,4.75-1.19Z"/>
      <path d="M251.81,114.44c-4.84,0-8.81-1.4-11.81-4.17-3.11-2.86-4.69-6.88-4.69-11.94,0-3.07.58-6.62,1.71-10.58,1.07-3.71,2.21-6.99,3.41-9.74,1.52-3.73,3.26-7.08,5.17-9.94,2.14-3.21,4.81-5.76,7.94-7.61,3.24-1.91,7.31-2.87,12.1-2.87,2.84,0,5.47.38,7.81,1.12,2.85.9,5.1,2.45,6.68,4.62,1.7,2.32,2.38,5.22,2.01,8.63-.83,7.12-5.04,11.54-11.58,12.19-.34.04-.69.06-1.06.06-.69,0-1.47-.07-2.37-.22-1.99-.33-3.73-1.3-5.05-2.8-.21-.24-.43-.52-.63-.84-.19.42-.39.88-.61,1.39-.89,2.1-1.74,4.29-2.52,6.55,1.34-.96,2.93-1.56,4.71-1.75h.07c.37-.04.75-.06,1.11-.06,1.34,0,2.62.24,3.79.72,1.3.53,3.11,1.7,4.31,4.23l.06.13.05.14c.9,2.25,1.15,4.58.73,6.94-.36,2.03-1.06,3.96-2.09,5.74-1.39,2.45-3.17,4.46-5.3,5.98-2.04,1.45-4.33,2.52-6.8,3.16-2.31.6-4.72.91-7.17.91Z"/>
      <path d="M275.25,114.53c-1.91,0-3.74-.71-5.3-2.05l-.15-.13-.14-.14c-2.15-2.19-3.17-5.16-3.04-8.84.1-2.76.66-5.81,1.67-9.05.93-2.99,2.02-5.95,3.25-8.81,1.19-2.77,2.24-5.14,3.14-7.05.26-.56.51-1.1.73-1.57l.04-.07c.03-.06.06-.14.1-.24l.04-.11.05-.1c.42-.9.95-2.05,1.61-3.43.69-1.45,1.31-2.67,1.89-3.71l.08-.14.08-.13c.17-.26.34-.54.51-.84.57-1.01,1.19-2.05,1.87-3.12.82-1.3,1.72-2.44,2.68-3.4,1.13-1.14,2.5-2.09,4.05-2.83,1.62-.77,3.27-1.16,4.91-1.16.16,0,.32,0,.48.01,3.85.19,5.67,1.93,6.53,3.35.13.21.24.42.34.64.18-.12.35-.24.53-.35,1.51-.98,3.15-1.78,4.86-2.38l.08-.03c.21-.07.42-.14.61-.21,1.43-.59,2.92-.95,4.44-1.09h.13s.34-.02.45-.02c1.29,0,2.55.26,3.75.77,1.82.78,3.21,2.24,3.92,4.1l.05.14.04.14c.62,2.01.53,4.14-.26,6.15-.97,2.43-2.39,4.69-4.21,6.72-1.54,1.72-3.14,3.33-4.77,4.81-.18.18-.37.35-.56.51-2.36,2.17-4.8,4.29-7.29,6.33,1.57,2.41,2.8,4.95,3.68,7.61.54,1.56.93,3.14,1.18,4.69.28,1.77.27,3.61-.02,5.47-.32,2.17-1.1,4.13-2.31,5.8-1.12,1.55-3.27,3.43-7.08,3.6h-.16s-.16,0-.16,0c-1.9-.04-3.64-.59-5.17-1.61-1.1-.74-2.15-1.64-3.1-2.69-.98-1.08-1.88-2.25-2.7-3.51-1.84,3.08-3.75,5.17-5.84,6.37-1.27.75-2.73,1.27-4.29,1.51-.41.06-.82.1-1.23.1Z"/>
      <path d="M318.68,114.34c-.29,0-.58,0-.86-.01-.18,0-.36,0-.54,0-4.35,0-7.73-.89-10.35-2.72-2.29-1.61-4.91-4.9-4.32-11.49.28-3.44,1.29-6.43,3.01-8.83,1.22-1.71,2.88-3.06,4.96-4.03-.61-1.09-1.04-2.28-1.28-3.57-.52-2.8,0-6.3,1.61-10.71l.03-.08c.94-2.47,2.06-4.44,3.42-6.03,1.12-1.31,2.39-2.56,3.76-3.7.16-.15.32-.3.49-.43,2.37-2.02,4.97-3.4,7.72-4.1,2.4-.61,4.83-.94,7.22-.97.45-.02.88-.03,1.31-.03,3.88,0,7.22.82,9.91,2.44,2.62,1.57,5.66,4.84,5.29,11.5v.1c-.1,1.22-.3,2.45-.61,3.65-.47,1.92-1.41,3.65-2.78,5.1l-.16.17-.17.15c-1.35,1.17-2.89,2.06-4.58,2.63-.02,0-.04.02-.06.02,1.35,2.07,2.05,4.55,2.04,7.34v.13s0,.13,0,.13c-.26,4.2-1.48,8.12-3.61,11.66-2.11,3.5-4.89,6.38-8.26,8.56l-.09.06c-2.35,1.44-4.9,2.35-7.58,2.7-1.9.25-3.76.37-5.5.37Z"/>
      <path class="cls-5" d="M333.68,62.31c3.58-.17,6.48.41,8.7,1.75,2.22,1.33,3.24,3.75,3.04,7.26-.07.96-.23,1.91-.47,2.85-.29,1.18-.84,2.2-1.66,3.06-.91.79-1.95,1.38-3.1,1.76-1.2.46-2.44.64-3.71.54-1.08-.14-2.01-.6-2.77-1.37-.46-.53-.67-1.1-.65-1.73.02-.62.18-1.24.47-1.84.36-.74.42-1.42.18-2.04-.24-.61-.9-.92-1.98-.92-1.87.12-3.36,1-4.47,2.63-.84,1.1-1.45,2.32-1.84,3.66-.38,1.33.18,2.44,1.69,3.33,1.15.5,2.38.8,3.67.9,1.34.12,2.63.46,3.85,1.01,2.98,1.56,4.45,4.07,4.43,7.53-.22,3.46-1.2,6.64-2.95,9.55-1.75,2.91-4.02,5.26-6.81,7.06-1.8,1.1-3.72,1.79-5.75,2.05-2.03.26-3.94.37-5.74.32-3.6.07-6.35-.55-8.23-1.87-1.89-1.32-2.67-3.75-2.36-7.28.22-2.64.94-4.82,2.16-6.54,1.22-1.72,3.25-2.88,6.09-3.48.6-.12,1.36-.04,2.27.25.91.29,1.61.81,2.11,1.57s.43,1.78-.2,3.08c-.26.5-.51,1.2-.74,2.07-.23.88-.29,1.7-.2,2.47.1.77.49,1.24,1.19,1.4,1.06.14,2.14-.18,3.26-.97s2.06-1.79,2.83-2.99c.77-1.2,1.16-2.37,1.19-3.49.02-1.13-.53-1.96-1.66-2.49-.65-.26-1.27-.52-1.87-.76-2.74-1.06-4.97-2.14-6.68-3.24-1.72-1.1-2.76-2.63-3.12-4.57-.36-1.94.11-4.71,1.41-8.28.74-1.95,1.61-3.5,2.61-4.66,1-1.16,2.11-2.25,3.33-3.26.12-.12.24-.23.36-.32,1.85-1.58,3.81-2.64,5.89-3.17,2.08-.53,4.15-.8,6.21-.83Z"/>
      <path class="cls-5" d="M315.09,64.04c.31,1.01.26,2.03-.14,3.06-.77,1.92-1.89,3.7-3.35,5.33-1.47,1.63-2.97,3.15-4.5,4.54-.14.14-.29.28-.43.4-2.69,2.47-5.45,4.85-8.28,7.13-.24.22-.48.42-.72.61-.7.58-1.24,1-1.62,1.26,2.62,3.05,4.51,6.35,5.69,9.91.46,1.32.79,2.63.99,3.93.2,1.3.2,2.64-.02,4.03-.22,1.47-.71,2.73-1.48,3.78-.77,1.06-1.95,1.62-3.53,1.69-1.01-.02-1.91-.3-2.7-.83-.79-.53-1.54-1.18-2.23-1.94-1.37-1.51-2.56-3.24-3.57-5.19-.1-.17-.2-.35-.32-.54-.89-1.42-1.68-3.31-2.38-5.69-.89,2.81-2.08,5.53-3.58,8.16-1.5,2.63-2.98,4.36-4.45,5.2-.82.48-1.72.8-2.7.95-.99.16-1.91-.14-2.77-.88-1.22-1.25-1.8-3.06-1.71-5.42.08-2.36.57-4.98,1.46-7.83.89-2.86,1.91-5.64,3.08-8.36,1.17-2.71,2.19-5.02,3.08-6.92.26-.58.5-1.09.72-1.55.07-.14.16-.34.25-.58.41-.89.94-2.01,1.59-3.37.65-1.36,1.24-2.52,1.76-3.48.22-.34.43-.7.65-1.08.53-.94,1.11-1.91,1.75-2.92s1.32-1.87,2.04-2.59c.77-.77,1.69-1.41,2.77-1.93,1.08-.52,2.14-.75,3.17-.7,1.44.07,2.36.44,2.76,1.1.4.66.51,1.65.34,2.97-.26,1.75-.76,3.49-1.48,5.22-.34.84-.64,1.68-.9,2.52,1.1-1.51,2.56-3.13,4.38-4.84,1.81-1.72,3.49-3.07,5.03-4.05,1.22-.79,2.52-1.43,3.89-1.91.29-.1.56-.19.83-.29,1.03-.43,2.09-.7,3.17-.79.72-.02,1.42.11,2.09.4.67.29,1.14.78,1.4,1.48Z"/>
      <path class="cls-5" d="M328.02,9.91c2.38,0,4.51.3,6.41.9,1.9.6,3.34,1.58,4.34,2.94,1,1.36,1.37,3.15,1.13,5.39-.58,4.97-3.07,7.66-7.49,8.07-.48.07-1.19.03-2.13-.13-.94-.16-1.71-.58-2.32-1.28-.61-.7-.68-1.84-.2-3.42.22-.58.35-1.09.4-1.55.05-.46-.07-.82-.36-1.08-.29-.26-.85-.4-1.69-.4-1.03,0-1.9.27-2.59.81-.7.54-1.3,1.17-1.8,1.89-.74,1.13-1.66,2.98-2.76,5.55-1.09,2.57-2.11,5.25-3.04,8.03-.94,2.79-1.55,5.07-1.84,6.84-.14,1.15-.11,2.03.11,2.63.22.6.55,1,1.01,1.21.46.2.96.31,1.51.31,1.18,0,2.14-.4,2.9-1.21.76-.8,1.46-1.98,2.11-3.51.84-1.82,2.25-2.85,4.21-3.06,1.01-.1,1.91.02,2.7.34.79.32,1.42.97,1.87,1.93.58,1.44.73,2.91.47,4.41-.26,1.5-.78,2.91-1.55,4.23-1.06,1.87-2.38,3.37-3.96,4.5-1.58,1.13-3.34,1.95-5.28,2.45-1.93.5-3.93.76-6,.76-3.65,0-6.54-.98-8.66-2.94-2.13-1.96-3.19-4.8-3.19-8.52,0-2.64.51-5.74,1.53-9.29,1.02-3.55,2.09-6.63,3.22-9.22,1.42-3.48,3-6.54,4.75-9.17,1.75-2.63,3.9-4.69,6.43-6.18,2.53-1.49,5.78-2.23,9.74-2.23Z"/>
      <path class="cls-5" d="M201.56,27.67c7.54-1.03,10.69.62,9.44,4.97-.91,2.86-2.53,4.59-4.84,5.2-2.32.61-5.05.59-8.19-.05-.82,2.31-1.53,4.63-2.13,6.99,2.38-.7,4.8-1.01,7.28-.94,1.8.05,3.22.44,4.25,1.17,1.03.73,1.55,1.83,1.55,3.3,0,1.75-.43,3.22-1.28,4.41-.85,1.19-1.95,2.13-3.3,2.81-1.35.68-2.78,1.18-4.3,1.48-1.53.3-2.98.45-4.38.45-1.99,0-3.84-.37-5.53-1.12-1.69-.74-3.06-1.85-4.11-3.31-1.04-1.46-1.57-3.29-1.57-5.48,0-2.55.4-5.42,1.21-8.63.8-3.21,1.81-6.41,3.03-9.6,1.21-3.19,2.49-6.09,3.84-8.68,1.56-3.12,3.2-5.46,4.92-7.01,1.72-1.55,3.63-2.56,5.74-3.03,2.11-.47,4.56-.7,7.35-.7,1.25,0,2.48.17,3.69.52,1.21.35,2.23.9,3.04,1.66.82.76,1.22,1.71,1.22,2.86,0,1.61-.4,2.91-1.21,3.89-.81.99-1.82,1.72-3.04,2.2-1.22.48-2.52.74-3.89.79-.91.07-1.93.12-3.06.14-1.13.02-2.11.01-2.95-.04-1.1,1.97-2.03,3.88-2.77,5.73Z"/>
      <path class="cls-5" d="M175.98,9.99c3.58-.17,6.48.41,8.7,1.75,2.22,1.33,3.24,3.75,3.04,7.26-.07.96-.23,1.91-.47,2.85-.29,1.18-.84,2.2-1.66,3.06-.91.79-1.95,1.38-3.1,1.76-1.2.46-2.44.64-3.71.54-1.08-.14-2.01-.6-2.77-1.37-.46-.53-.67-1.1-.65-1.73.02-.62.18-1.24.47-1.84.36-.74.42-1.42.18-2.04-.24-.61-.9-.92-1.98-.92-1.87.12-3.36,1-4.47,2.63-.84,1.1-1.45,2.32-1.84,3.66s.18,2.44,1.69,3.33c1.15.5,2.38.8,3.67.9,1.34.12,2.63.46,3.85,1.01,2.98,1.56,4.45,4.07,4.43,7.53-.22,3.46-1.2,6.64-2.95,9.55-1.75,2.91-4.02,5.26-6.81,7.06-1.8,1.1-3.72,1.79-5.75,2.05-2.03.26-3.94.37-5.74.32-3.6.07-6.35-.55-8.23-1.87-1.89-1.32-2.67-3.75-2.36-7.28.22-2.64.94-4.82,2.16-6.54,1.22-1.72,3.25-2.88,6.09-3.48.6-.12,1.36-.04,2.27.25.91.29,1.61.81,2.11,1.57.49.76.43,1.78-.2,3.08-.26.5-.51,1.2-.74,2.07-.23.88-.29,1.7-.2,2.47.1.77.49,1.24,1.19,1.4,1.06.14,2.14-.18,3.26-.97s2.06-1.79,2.83-2.99c.77-1.2,1.16-2.37,1.19-3.49.02-1.13-.53-1.96-1.66-2.49-.65-.26-1.27-.52-1.87-.76-2.74-1.06-4.97-2.14-6.68-3.24-1.72-1.1-2.76-2.63-3.12-4.57-.36-1.94.11-4.71,1.41-8.28.74-1.95,1.61-3.5,2.61-4.66,1-1.16,2.11-2.25,3.33-3.26.12-.12.24-.23.36-.32,1.85-1.58,3.81-2.64,5.89-3.17,2.08-.53,4.15-.8,6.21-.83Z"/>
      <path class="cls-5" d="M185.71,66.67c.94,1.68,1.38,3.6,1.33,5.75-.05,2.15-.49,4.24-1.32,6.29-.83,2.04-1.97,3.74-3.44,5.1-1.47,1.36-3.13,2.04-5.01,2.04,1.8.7,2.92,1.95,3.35,3.76.43,1.81.36,3.84-.22,6.07-.58,2.23-1.47,4.33-2.68,6.29-1.21,1.96-2.54,3.45-3.98,4.48-1.92,1.27-3.79,2.16-5.6,2.67-1.81.5-3.58.73-5.31.68h-.14c-2.02.05-3.99-.11-5.92-.47-1.93-.36-3.46-1.33-4.59-2.92-.79-1.13-1.2-2.75-1.22-4.86.07-3.15.67-6.8,1.8-10.95,1.13-4.15,2.27-7.68,3.42-10.59,1.68-4.42,3.21-7.89,4.57-10.43,1.37-2.53,2.98-4.35,4.83-5.46,2.3-1.39,5.74-2.02,10.3-1.87,2.64.05,4.76.47,6.36,1.26,1.6.79,2.76,1.85,3.48,3.17ZM170.47,92.5c.29-.74.24-1.43-.14-2.07-.38-.64-.97-1-1.76-1.1-1.37-.12-2.69-.11-3.96.04-.43,1.37-.92,2.94-1.48,4.72-.55,1.78-1.01,3.36-1.37,4.75,1.32.7,2.44.92,3.37.67.92-.25,1.68-.7,2.27-1.33.59-.64,1-1.21,1.24-1.71.48-.77,1.09-2.09,1.84-3.96ZM176.27,74.27c.02-.26.02-.53,0-.79-.05-.7-.4-1.19-1.05-1.48-.12-.05-.49-.11-1.1-.2-.61-.08-1.39-.07-2.32.05-.72,1.47-1.47,3.06-2.25,4.77-.78,1.72-1.44,3.25-1.96,4.59,1.3.38,2.67.52,4.11.4,1.87-.19,3.11-1.19,3.71-2.99.58-1.99.86-3.45.86-4.36Z"/>
      <path class="cls-5" d="M265.64,62.24c2.38,0,4.51.3,6.41.9,1.9.6,3.34,1.58,4.34,2.94,1,1.36,1.37,3.15,1.13,5.39-.58,4.97-3.07,7.66-7.49,8.07-.48.07-1.19.03-2.12-.13-.94-.16-1.71-.58-2.32-1.28-.61-.7-.68-1.84-.2-3.42.22-.58.35-1.09.4-1.55.05-.46-.07-.82-.36-1.08-.29-.26-.85-.4-1.69-.4-1.03,0-1.9.27-2.59.81-.7.54-1.3,1.17-1.8,1.89-.74,1.13-1.66,2.98-2.76,5.55-1.09,2.57-2.11,5.25-3.04,8.03-.94,2.79-1.55,5.07-1.84,6.84-.14,1.15-.11,2.03.11,2.63.22.6.55,1,1.01,1.21.46.2.96.31,1.51.31,1.18,0,2.14-.4,2.9-1.21.76-.8,1.46-1.98,2.11-3.51.84-1.82,2.24-2.85,4.21-3.06,1.01-.1,1.91.02,2.7.34.79.32,1.42.97,1.87,1.93.58,1.44.73,2.91.47,4.41-.26,1.5-.78,2.91-1.55,4.23-1.06,1.87-2.38,3.37-3.96,4.5-1.59,1.13-3.34,1.95-5.28,2.45s-3.93.76-6,.76c-3.65,0-6.54-.98-8.66-2.94-2.13-1.96-3.19-4.8-3.19-8.52,0-2.64.51-5.74,1.53-9.29,1.02-3.55,2.09-6.63,3.22-9.22,1.42-3.48,3-6.54,4.76-9.17,1.75-2.63,3.89-4.69,6.43-6.18,2.53-1.49,5.78-2.23,9.74-2.23Z"/>
      <path class="cls-5" d="M289.73,13.98c-.84,2.62-2.26,5.62-4.25,9.01-1.99,3.39-3.97,6.6-5.94,9.65-1.75,2.69-3.06,4.8-3.93,6.34-.77,1.08-1.74,2.59-2.92,4.54-1.2,1.99-2.52,4.06-3.96,6.2-1.44,2.14-2.89,3.95-4.36,5.44-1.46,1.49-2.85,2.26-4.14,2.31-1.56-.05-2.73-.52-3.51-1.42-.78-.9-1.3-2.01-1.57-3.33-.26-1.32-.4-2.64-.4-3.96.02-1.42-.01-2.85-.11-4.29-.07-1.01-.12-2-.14-2.99-.05-2.59-.04-5.17.04-7.74.1-3.65.24-7.29.43-10.91.1-1.58.18-3.18.25-4.79v-.79c.02-1.1.14-2.18.36-3.22.22-1.04.74-2,1.58-2.86,1.15-.98,2.35-1.39,3.58-1.22,1.24.17,2.31.68,3.22,1.53.91.85,1.45,1.8,1.62,2.83.31,2.69.5,5.58.58,8.66.07,3.09.1,6.06.07,8.91v1.62c.55-.86,1.1-1.73,1.66-2.59,3.39-5.62,7.14-11.13,11.27-16.53,1.49-1.92,3.29-3.28,5.4-4.07,1.51-.46,2.83-.32,3.96.41,1.13.73,1.52,1.83,1.19,3.3Z"/>
      <path class="cls-5" d="M249.28,14.35c.91,1.68,1.33,3.67,1.24,5.96-.08,2.29-.58,4.54-1.48,6.75-.9,2.21-2.1,4.06-3.6,5.56-1.5,1.5-3.2,2.25-5.1,2.25,1.25.46,2.16,1.19,2.74,2.22.58,1.02.88,2.22.9,3.58,0,2.02-.29,3.87-.88,5.57-.59,1.69-1.29,3.4-2.11,5.13-.17.38-.35.77-.54,1.15-.55,1.3-1.31,2.43-2.29,3.4-.97.97-2.2,1.52-3.69,1.64-1.37.05-2.59-.32-3.66-1.1-1.07-.78-1.65-1.85-1.75-3.22-.02-.89.05-1.64.23-2.27.18-.62.43-1.25.74-1.87.22-.46.44-1,.68-1.62.12-.29.24-.6.36-.94.53-1.2.97-2.5,1.33-3.89.36-1.39.31-2.65-.14-3.78-.34-.29-.74-.46-1.22-.5-.65-.07-1.22-.1-1.71-.07-.49.02-1.04.06-1.64.11-.22.67-.46,1.43-.72,2.27-.43,1.1-.94,2.49-1.51,4.14-.53,1.44-1.04,2.85-1.55,4.23-.5,1.38-.96,2.54-1.37,3.48-.58,1.3-1.35,2.43-2.32,3.4-.97.97-2.2,1.52-3.69,1.64-.53.02-1.04,0-1.55-.07-2.02-.46-3.12-1.64-3.31-3.55-.19-1.91.07-4.03.77-6.36.71-2.33,1.42-4.36,2.14-6.09.29-.72.52-1.32.68-1.8.26-.72.52-1.45.76-2.2,1.13-3.27,2.31-6.53,3.55-9.78,1.24-3.25,2.64-6.42,4.2-9.49.62-1.3,1.36-2.5,2.2-3.62.84-1.12,1.88-2.06,3.13-2.83,2.31-1.39,5.74-2.02,10.3-1.87,2.64.05,4.76.47,6.36,1.26,1.6.79,2.77,1.85,3.51,3.17ZM230.84,30.48c.26.1.53.16.79.18,2.26.26,4.14-.49,5.66-2.27.84-.98,1.41-2.13,1.71-3.42.3-1.3.38-2.57.23-3.82-.05-.7-.4-1.19-1.04-1.48h-.04c-.1-.07-.37-.14-.83-.2-.46-.06-1.12-.04-1.98.05-.75,1.54-1.6,3.38-2.58,5.53-.97,2.15-1.74,3.92-2.29,5.31.12.05.24.08.36.11Z"/>
    </g>
    <g>
      <rect class="cls-4" x="15.3" y="10.96" width="103.4" height="98.01" rx="42.87" ry="42.87"/>
      <rect class="cls-4" x="47.73" y="109.9" width="38.55" height="7.68"/>
      <g>
        <path class="cls-6" d="M10.28,55.11c0-70.35,113.44-70.35,113.44,0"/>
        <path class="cls-6" d="M123.72,94.12c0,20.35,2.62,17.72-37.31,17.72"/>
      </g>
      <rect class="cls-8" x="26.85" y="38.36" width="80.31" height="62.53" rx="23.47" ry="23.47"/>
      <path class="cls-2" d="M80.32,78.68c-5.75,0-10.42-4.68-10.42-10.42s4.68-10.42,10.42-10.42,10.42,4.68,10.42,10.42-4.68,10.42-10.42,10.42Z"/>
      <circle class="cls-5" cx="80.32" cy="68.25" r="5.92"/>
      <path class="cls-1" d="M55.52,78.68c-5.75,0-10.42-4.68-10.42-10.42s4.68-10.42,10.42-10.42,10.42,4.68,10.42,10.42-4.68,10.42-10.42,10.42Z"/>
      <circle class="cls-5" cx="55.52" cy="68.25" r="5.92"/>
      <path class="cls-10" d="M115.66,80.31c1.23-3.98,1.89-8.2,1.89-12.58v-12.27c0-23.58-18.54-42.87-42.87-42.87h-10.75s44.56,7.29,46.52,40.09c1.68,27.99,5.21,27.63,5.21,27.63Z"/>
      <rect class="cls-7" x="26.85" y="38.36" width="80.31" height="62.53" rx="23.47" ry="23.47"/>
      <rect class="cls-3" x="115.56" y="56.04" width="16.31" height="39" rx="7.24" ry="7.24"/>
      <rect class="cls-3" x="2.13" y="56.04" width="16.31" height="39" rx="7.24" ry="7.24"/>
      <rect class="cls-3" x="74.01" y="103.45" width="11.26" height="17" rx="4.25" ry="4.25" transform="translate(-32.3 191.59) rotate(-90)"/>
    </g>
  </g>
</svg>