<svg width="2048" height="1024" viewBox="0 0 2048 1024" xmlns="http://www.w3.org/2000/svg">
  <rect width="2048" height="1024" fill="#f5f5dc"/>

  <!-- North America -->
  <path d="M150 200 Q200 180 280 190 Q350 185 420 200 Q480 220 520 250 Q540 280 530 320 Q520 360 480 380 Q420 400 380 420 Q320 440 280 430 Q220 420 180 400 Q140 380 130 340 Q120 300 130 260 Q140 220 150 200 Z" fill="#6b8e6b"/>

  <!-- South America -->
  <path d="M350 450 Q380 440 410 460 Q440 480 450 520 Q460 580 450 640 Q440 700 420 750 Q400 800 380 840 Q360 870 340 880 Q320 890 300 880 Q280 870 270 840 Q260 800 270 750 Q280 700 290 640 Q300 580 310 520 Q320 480 330 460 Q340 450 350 450 Z" fill="#6b8e6b"/>

  <!-- Europe -->
  <path d="M900 180 Q950 170 1000 180 Q1050 190 1080 220 Q1100 250 1090 280 Q1080 310 1050 330 Q1000 340 950 330 Q900 320 880 290 Q860 260 870 230 Q880 200 900 180 Z" fill="#6b8e6b"/>

  <!-- Africa -->
  <path d="M950 350 Q1000 340 1050 360 Q1100 380 1120 420 Q1140 480 1130 540 Q1120 600 1100 650 Q1080 700 1050 730 Q1000 750 950 740 Q900 730 880 700 Q860 650 870 600 Q880 540 890 480 Q900 420 920 380 Q940 360 950 350 Z" fill="#6b8e6b"/>

  <!-- Asia -->
  <path d="M1100 150 Q1200 140 1300 160 Q1400 180 1500 200 Q1600 220 1680 250 Q1720 280 1710 320 Q1700 360 1680 390 Q1600 420 1500 410 Q1400 400 1300 390 Q1200 380 1150 360 Q1100 340 1080 310 Q1060 280 1070 250 Q1080 220 1090 190 Q1095 170 1100 150 Z" fill="#6b8e6b"/>

  <!-- Australia -->
  <path d="M1400 700 Q1450 690 1500 700 Q1550 710 1580 740 Q1600 770 1590 800 Q1580 830 1550 840 Q1500 850 1450 840 Q1400 830 1380 800 Q1360 770 1370 740 Q1380 710 1400 700 Z" fill="#6b8e6b"/>

  <!-- Antarctica (simplified strip at bottom) -->
  <rect x="0" y="950" width="2048" height="74" fill="#6b8e6b"/>
</svg>